<?xml version="1.0" encoding="utf-8"?>
<!-- Generator: Adobe Illustrator 25.0.1, SVG Export Plug-In . SVG Version: 6.00 Build 0)  -->
<svg version="1.1" id="Layer_1" xmlns="http://www.w3.org/2000/svg" xmlns:xlink="http://www.w3.org/1999/xlink" x="0px" y="0px"
	 viewBox="0 0 1077.01 708.28" style="enable-background:new 0 0 1077.01 708.28;" xml:space="preserve">
<style type="text/css">
	.st0{fill:#15121D;}
	.st1{fill:#FF9703;}
	.st2{fill:#E4E1E1;}
	.st3{fill:#FDD207;}
	.st4{fill:#FCD644;}
	.st5{fill:#FBDB3F;}
	.st6{fill:#B6B8BD;}
	.st7{fill:#FECB5A;}
	.st8{fill:#121325;}
	.st9{fill:#FFFFFF;}
</style>
<g>
	<g>
		<g>
			<path class="st9" d="M81.85,708.28v-31.31H24.61c-4.64,0-8.8-0.86-12.48-2.59c-3.69-1.72-6.63-3.99-8.83-6.81
				c-2.2-2.81-3.3-5.94-3.3-9.39v-41.38c0-3.45,1.1-6.58,3.3-9.39c2.2-2.81,5.14-5.08,8.83-6.8c3.68-1.72,7.84-2.59,12.48-2.59h80.6
				v110.26H81.85z M25.68,659.14h54.03c0.59,0,1.1-0.16,1.51-0.48c0.41-0.32,0.62-0.7,0.62-1.16v-40.02c0-0.45-0.21-0.84-0.62-1.16
				c-0.42-0.32-0.92-0.48-1.51-0.48H25.68c-0.6,0-1.1,0.16-1.51,0.48c-0.42,0.32-0.62,0.71-0.62,1.16v40.02
				c0,0.45,0.21,0.84,0.62,1.16C24.58,658.98,25.08,659.14,25.68,659.14z"/>
		</g>
		<g>
			<path class="st9" d="M133.11,674.39c-3.74-1.72-6.72-3.99-8.92-6.81c-2.2-2.81-3.3-5.94-3.3-9.39v-60.17h23.36v59.49
				c0,0.45,0.21,0.84,0.62,1.16c0.41,0.32,0.92,0.48,1.52,0.48h54.03c0.59,0,1.1-0.16,1.51-0.48c0.41-0.32,0.62-0.7,0.62-1.16
				v-59.49h23.36v60.17c0,3.45-1.1,6.58-3.3,9.39c-2.2,2.81-5.14,5.08-8.83,6.81c-3.69,1.72-7.85,2.59-12.48,2.59H145.5
				C140.98,676.97,136.86,676.11,133.11,674.39z"/>
		</g>
		<g>
			<path class="st9" d="M269.25,676.97c-4.52,0-8.65-0.86-12.39-2.59c-3.75-1.72-6.72-3.99-8.92-6.81c-2.2-2.81-3.3-5.94-3.3-9.39
				v-29.67h81.67v-11.03c0-0.45-0.21-0.84-0.62-1.16c-0.42-0.32-0.92-0.48-1.52-0.48h-79.53v-17.83h80.42
				c4.52,0,8.65,0.86,12.39,2.59c3.74,1.72,6.71,3.99,8.91,6.8c2.2,2.82,3.3,5.95,3.3,9.39v60.17H269.25z M270.14,659.14h56.17
				v-14.56H268v12.93c0,0.45,0.21,0.84,0.63,1.16C269.04,658.98,269.55,659.14,270.14,659.14z"/>
		</g>
		<g>
			<path class="st9" d="M375.7,674.39c-3.69-1.72-6.66-3.99-8.92-6.81c-2.26-2.81-3.39-5.94-3.39-9.39v-41.38
				c0-3.45,1.13-6.58,3.39-9.39c2.26-2.81,5.23-5.08,8.92-6.8c3.68-1.72,7.78-2.59,12.3-2.59h80.24v17.83H388.9
				c-0.6,0-1.1,0.16-1.52,0.48c-0.42,0.32-0.62,0.71-0.62,1.16v40.02c0,0.45,0.21,0.84,0.62,1.16c0.41,0.32,0.92,0.48,1.52,0.48
				h79.53v17.83h-80.42C383.49,676.97,379.39,676.11,375.7,674.39z"/>
		</g>
		<g>
			<path class="st9" d="M483.23,676.97V572.16h23.36v56.35h18.37l36.91-30.49h24.96v4.9l-41.19,34.57l41.01,34.57v4.9h-24.79
				l-36.91-30.49h-18.37v30.49H483.23z"/>
		</g>
		<g>
			<path class="st9" d="M610.54,674.39c-3.69-1.72-6.66-3.99-8.92-6.81c-2.26-2.81-3.39-5.94-3.39-9.39v-84.39h23.36v24.23h40.3
				v17.83h-40.3v41.65c0,0.45,0.21,0.84,0.62,1.16c0.41,0.32,0.92,0.48,1.52,0.48h38.16v17.83h-39.05
				C618.33,676.97,614.23,676.11,610.54,674.39z"/>
		</g>
		<g>
			<path class="st9" d="M688.29,674.39c-3.69-1.72-6.66-3.99-8.92-6.81c-2.26-2.81-3.39-5.94-3.39-9.39v-41.38
				c0-3.45,1.13-6.58,3.39-9.39c2.26-2.81,5.23-5.08,8.92-6.8c3.68-1.72,7.78-2.59,12.3-2.59h55.81c4.52,0,8.65,0.86,12.39,2.59
				c3.75,1.72,6.71,3.99,8.92,6.8c2.2,2.82,3.3,5.95,3.3,9.39v41.38c0,3.45-1.1,6.58-3.3,9.39c-2.2,2.81-5.14,5.08-8.83,6.81
				c-3.69,1.72-7.85,2.59-12.48,2.59h-55.81C696.07,676.97,691.97,676.11,688.29,674.39z M701.48,659.14h54.03
				c0.59,0,1.1-0.16,1.52-0.48c0.41-0.32,0.62-0.7,0.62-1.16v-40.02c0-0.45-0.21-0.84-0.62-1.16c-0.42-0.32-0.92-0.48-1.52-0.48
				h-54.03c-0.6,0-1.1,0.16-1.52,0.48c-0.42,0.32-0.62,0.71-0.62,1.16v40.02c0,0.45,0.21,0.84,0.62,1.16
				C700.38,658.98,700.89,659.14,701.48,659.14z"/>
		</g>
		<g>
			<path class="st9" d="M807.58,674.39c-3.69-1.72-6.66-3.99-8.92-6.81c-2.26-2.81-3.39-5.94-3.39-9.39v-41.38
				c0-3.45,1.13-6.58,3.39-9.39c2.26-2.81,5.23-5.08,8.92-6.8c3.68-1.72,7.78-2.59,12.3-2.59h55.81c4.52,0,8.65,0.86,12.39,2.59
				c3.75,1.72,6.71,3.99,8.92,6.8c2.2,2.82,3.3,5.95,3.3,9.39v41.38c0,3.45-1.1,6.58-3.3,9.39c-2.2,2.81-5.14,5.08-8.83,6.81
				c-3.69,1.72-7.85,2.59-12.48,2.59h-55.81C815.36,676.97,811.26,676.11,807.58,674.39z M820.77,659.14h54.03
				c0.59,0,1.1-0.16,1.52-0.48c0.41-0.32,0.62-0.7,0.62-1.16v-40.02c0-0.45-0.21-0.84-0.62-1.16c-0.42-0.32-0.92-0.48-1.52-0.48
				h-54.03c-0.6,0-1.1,0.16-1.52,0.48c-0.42,0.32-0.62,0.71-0.62,1.16v40.02c0,0.45,0.21,0.84,0.62,1.16
				C819.67,658.98,820.18,659.14,820.77,659.14z"/>
		</g>
		<g>
			<path class="st9" d="M926.69,674.39c-3.69-1.72-6.66-3.99-8.92-6.81c-2.26-2.81-3.39-5.94-3.39-9.39v-86.16h23.54v85.48
				c0,0.45,0.21,0.84,0.62,1.16c0.41,0.32,0.92,0.48,1.52,0.48h19.79v17.83H939C934.48,676.97,930.37,676.11,926.69,674.39z"/>
		</g>
		<g>
			<path class="st9" d="M984.11,674.39c-3.69-1.72-6.66-3.99-8.92-6.81c-2.26-2.81-3.39-5.94-3.39-9.39v-3h23.36v2.32
				c0,0.45,0.21,0.84,0.62,1.16c0.41,0.32,0.92,0.48,1.52,0.48h54.03c0.59,0,1.1-0.16,1.52-0.48c0.41-0.32,0.62-0.7,0.62-1.16v-9.39
				c0-0.45-0.21-0.84-0.62-1.16c-0.42-0.32-0.92-0.48-1.52-0.48h-54.92c-4.52,0-8.62-0.86-12.3-2.59c-3.69-1.72-6.66-3.99-8.92-6.81
				c-2.26-2.81-3.39-5.94-3.39-9.39v-10.89c0-3.45,1.13-6.58,3.39-9.39c2.26-2.81,5.23-5.08,8.92-6.8c3.68-1.72,7.78-2.59,12.3-2.59
				h55.81c4.64,0,8.8,0.86,12.48,2.59c3.68,1.72,6.66,3.99,8.92,6.8c2.26,2.82,3.39,5.95,3.39,9.39v3h-23.54v-2.31
				c0-0.45-0.21-0.84-0.62-1.16c-0.42-0.32-0.92-0.48-1.52-0.48H997.3c-0.6,0-1.1,0.16-1.52,0.48c-0.42,0.32-0.62,0.71-0.62,1.16
				v9.39c0,0.45,0.21,0.84,0.62,1.16c0.41,0.32,0.92,0.48,1.52,0.48h54.92c4.64,0,8.8,0.86,12.48,2.59
				c3.68,1.72,6.66,3.99,8.92,6.81c2.26,2.81,3.39,5.94,3.39,9.39v10.89c0,3.45-1.13,6.58-3.39,9.39c-2.26,2.81-5.23,5.08-8.92,6.81
				c-3.69,1.72-7.85,2.59-12.48,2.59h-55.81C991.89,676.97,987.79,676.11,984.11,674.39z"/>
		</g>
	</g>
	<g>
		<g>
			<g>
				<g>
					<g>
						<path class="st0" d="M367.8,358.16l-109.92,56.87l11.31,15.59l118.09-65.37L367.8,358.16z M382.01,365.67l-112.18,62.07
							l-8.67-11.95l106.8-55.25L382.01,365.67z"/>
					</g>
					<g>
						<path class="st0" d="M554.4,169.28c-26.88,0.15-49.51,4.39-66.4,8.87c16.89-0.55,39.52-1.08,66.4-1.1
							c22.92-0.02,42.64,0.33,58.06,0.75v-2.42C597.04,172,577.32,169.14,554.4,169.28z M591.18,183.48L550.23,285.7l55.75-99.78
							L591.18,183.48z M577.87,183.48l-38.8-0.94l-37,73.56l14.49,23.98l37.9-74.9l-29.6,81.99L577.87,183.48z M431.17,174.26v10.78
							h25.54l11.09,5.77v-7.33h3.67v-6.76L431.17,174.26z M423.05,156.19c-0.42-0.18-0.86-0.33-1.27-0.48
							c0.7,0.26,1.38,0.53,2.06,0.81C423.57,156.41,423.31,156.3,423.05,156.19z M356.56,162.6c-45.08-1.1-86.47,4.9-86.47,4.9
							l6.3,11.77c0,0,26.88-7.33,60.08-6.89c62.32,0.83,76.72,6.89,78.26,1.78C416.29,169.06,401.64,163.72,356.56,162.6z
							 M406.62,150.94c-0.44-0.11-0.9-0.22-1.36-0.33c0.86,0.22,1.73,0.44,2.63,0.68C407.48,151.16,407.04,151.05,406.62,150.94z
							 M382.1,183.48l-39.08,83.26h6.21l39.52-83.26H382.1z M367.8,358.16l-109.92,56.87l11.31,15.59l118.09-65.37L367.8,358.16z
							 M259.53,415.4l108.36-56.06l16.75,6.1l-115.12,63.72L259.53,415.4z M368.11,181.7H333.9l-29.07,58.17l13.55,19.54
							l27.07-50.39l-19.32,59.94L368.11,181.7z M282.85,199.25c-3.1,22.64,4.7,46.7,20.53,63.17c2.2,2.37,4.79,4.41,7.22,6.54
							C292.36,250.63,282.45,225.07,282.85,199.25z"/>
						<path class="st0" d="M814.12,207.24c-9.31-5.88-17.76-2.96-17.76-2.96S775.62,87.62,656.02,49.74c0,0,26.28-14.82,30.5-18.82
							c4.22-4,0.66-9.99-14.43-15.52c-15.11-5.56-84.6-26.66-154.32-7.55c-69.74,19.08-118.13,44.4-177.2,136.77
							c0,0-37.75-3.12-64.84,4.22c-27.1,7.33-19.08,19.1-19.32,33.75c-0.22,14.67,7.33,16.67,15.11,16.67c0,0-1.84,24.57,4.44,44.4
							c1.87,5.84,5.42,12.69,8.76,18.44c4,6.92,7.69,12.21,7.69,12.21s-20.27,3.78-32.76,16.97c-4.96,5.25-8.7,11.97-9.44,20.55
							c-2.53,29.49,8.72,40.05,27.16,53.95c10.43,6.98,26.92,13.44,26.92,13.44s-40.09,22.2-46.75,26.85
							c-6.65,4.68-11,11.33-3.12,24.44c7.88,13.09,20.44,10.1,32.65,2.77c12.21-7.33,64.38-36.3,64.38-36.3s11.68,9.38,32.89,17.94
							c5.86,2.37,12.47,4.68,19.74,6.7c0,0-40.26,49.37-45.14,106.66c-0.01,0.08-0.01,0.16-0.02,0.25
							c-0.95,11.67,11.06,20.04,21.72,15.2l1.37-0.62c53.69-27.75,146.02-75.9,232.2-96.93c0.11,0,58.35-12.75,76.47-18.45
							c42.17-13.27,89.4-47.58,105.98-113.02c6.52-30.81,5.62-41.74,5.62-41.74s24.88-1.49,24.88-20.42
							C827.16,233.59,827.84,215.94,814.12,207.24z M495.55,31.82c86.07-29.29,160.56-4,160.56-4l-25.27,13.81l-34.01,18.6
							C751.8,71.34,776.22,199.25,776.22,199.25s-110.12-41.3-177.18-43.98c-67.06-2.66-160.03,9.05-160.03,9.05
							c-3.01-2.02-6.32-3.86-9.84-5.49c-0.42-0.2-0.83-0.4-1.25-0.57c-0.09-0.04-0.18-0.09-0.26-0.11c-0.53-0.26-1.08-0.51-1.6-0.72
							c-0.72-0.31-1.47-0.61-2.22-0.9c-0.68-0.29-1.36-0.55-2.06-0.81c-0.81-0.31-1.65-0.61-2.48-0.9c-0.86-0.31-1.73-0.61-2.63-0.9
							c-2.88-0.97-5.82-1.84-8.76-2.61c-0.9-0.24-1.78-0.46-2.63-0.68c-0.46-0.11-0.9-0.22-1.34-0.33c-0.9-0.22-1.8-0.44-2.7-0.64
							c-0.29-0.09-0.57-0.15-0.86-0.2c-1.05-0.24-2.09-0.46-3.1-0.68c-0.61-0.13-1.23-0.24-1.82-0.37c-1.1-0.22-2.2-0.42-3.27-0.64
							c-0.55-0.07-1.1-0.18-1.65-0.26c-1.03-0.2-2.06-0.37-3.07-0.53c-0.5-0.09-1.01-0.18-1.52-0.26c-0.07-0.02-0.11-0.02-0.18-0.02
							c-1.47-0.22-2.9-0.44-4.28-0.64c-0.26-0.02-0.51-0.07-0.75-0.09c-0.55-0.09-1.1-0.15-1.62-0.22
							c-0.09-0.02-0.18-0.02-0.29-0.04c-0.44-0.04-0.88-0.11-1.3-0.18c-0.44-0.04-0.86-0.11-1.27-0.15
							c-1.38-0.15-2.66-0.31-3.84-0.42c-0.37-0.04-0.72-0.09-1.05-0.11c-0.64-0.07-1.23-0.13-1.8-0.18
							c-0.29-0.02-0.57-0.04-0.81-0.07c-0.51-0.07-0.99-0.09-1.43-0.13c-0.66-0.04-1.23-0.09-1.73-0.13
							c-0.33-0.02-0.64-0.04-0.9-0.07c-0.15,0-0.31-0.02-0.44-0.02c-0.26-0.02-0.48-0.04-0.66-0.04c-0.24-0.02-0.37-0.02-0.37-0.02
							S409.5,61.09,495.55,31.82z M516.57,280.08l-14.49-23.98l37-73.56l38.8,0.94l-53.01,103.68l29.6-81.99L516.57,280.08z
							 M591.18,183.48l14.8,2.44l-55.75,99.78L591.18,183.48z M554.4,177.05c-26.88,0.02-49.51,0.55-66.4,1.1
							c16.89-4.48,39.52-8.72,66.4-8.87c22.92-0.13,42.64,2.72,58.06,6.1v2.42C597.04,177.38,577.32,177.03,554.4,177.05z
							 M471.46,176.72v6.76h-3.67v7.33l-11.09-5.77h-25.54v-10.78L471.46,176.72z M270.09,167.5c0,0,41.39-5.99,86.47-4.9
							c45.08,1.12,59.73,6.46,58.17,11.55c-1.54,5.12-15.94-0.94-78.26-1.78c-33.2-0.44-60.08,6.89-60.08,6.89L270.09,167.5z
							 M318.38,259.41l-13.55-19.54l29.07-58.17h34.21l-41.98,87.26l19.32-59.94L318.38,259.41z M382.1,183.48h6.65l-39.52,83.26
							h-6.21L382.1,183.48z M282.85,199.25c-0.4,25.82,9.51,51.38,27.75,69.72c-2.44-2.13-5.03-4.17-7.22-6.54
							C287.55,245.95,279.75,221.89,282.85,199.25z M269.19,430.62l-11.31-15.59l109.92-56.87l19.48,7.09L269.19,430.62z
							 M759.35,350.67c-0.9,1.41-1.8,2.77-2.72,4.11c-0.02,0.02-0.02,0.04-0.04,0.07c-1.45,2.11-2.92,4.17-4.44,6.15
							c-0.44,0.57-0.88,1.14-1.32,1.69c-0.7,0.94-1.45,1.87-2.2,2.77c-0.22,0.29-0.44,0.57-0.68,0.83
							c-0.86,1.05-1.73,2.06-2.63,3.07c-0.42,0.48-0.83,0.97-1.25,1.43c-0.83,0.92-1.67,1.84-2.5,2.72
							c-0.72,0.77-1.45,1.52-2.17,2.24c-2,2.04-4.04,4-6.1,5.84c-1.19,1.1-2.37,2.13-3.56,3.12c-0.72,0.66-1.47,1.25-2.2,1.82
							c-2.2,1.82-4.44,3.54-6.68,5.14c-1.49,1.08-2.99,2.13-4.5,3.12c-0.66,0.44-1.32,0.88-1.95,1.3c-0.26,0.18-0.53,0.33-0.77,0.48
							c-0.61,0.4-1.23,0.77-1.82,1.14c-0.77,0.48-1.54,0.94-2.28,1.38c-0.61,0.35-1.21,0.7-1.8,1.05c-2.61,1.49-5.25,2.9-7.86,4.19
							c-0.61,0.33-1.23,0.64-1.87,0.92c-1.14,0.55-2.28,1.1-3.4,1.6c-0.75,0.35-1.49,0.68-2.24,0.99c-1.43,0.64-2.83,1.23-4.24,1.8
							c-1.32,0.53-2.63,1.05-3.97,1.56c-1.54,0.57-3.05,1.12-4.59,1.65c-1.34,0.48-2.68,0.92-4,1.36c-3.27,1.03-6.52,2-9.71,2.85
							c-1.45,0.4-2.88,0.77-4.28,1.1c-1.25,0.31-2.5,0.61-3.75,0.9c-0.2,0.04-0.4,0.09-0.59,0.13c-0.11,0.02-0.22,0.04-0.31,0.07
							c-11.53,2.63-22.29,4.19-31.55,5.49c-0.11,0.02-0.22,0.02-0.33,0.04c-0.15,0.02-0.29,0.02-0.44,0.07
							c-1.73,0.24-3.43,0.46-5.03,0.68c-0.75,0.09-1.49,0.2-2.26,0.33c-0.94,0.13-1.84,0.26-2.74,0.42
							c-2.68,0.4-5.14,0.79-7.36,1.23c-0.53,0.11-1.03,0.22-1.54,0.33c-1.62,0.35-3.1,0.72-4.39,1.14
							c-0.31,0.09-0.57,0.18-0.86,0.29c-0.26,0.09-0.53,0.18-0.79,0.29c-0.02,0-0.02,0-0.04,0.02c-0.02,0-0.02,0-0.04,0.02
							c-15.41,3.78-32.89,9.33-51.01,15.85c-47.96,17.19-100.72,41.06-134.05,56.78c-18.27,8.61-30.7,14.8-33.27,16.1l-0.22,0.11
							l-0.29,0.13c0.46-1.91,0.97-3.78,1.49-5.64c0.24-0.92,0.51-1.87,0.79-2.77c0.53-1.82,1.1-3.62,1.69-5.4
							c2.11-6.43,4.48-12.54,7.03-18.31c0.61-1.43,1.25-2.83,1.91-4.22c0.7-1.54,1.45-3.07,2.2-4.57
							c4.19-8.41,8.65-15.96,13.02-22.62c0.51-0.75,0.99-1.45,1.45-2.15c0.22-0.31,0.42-0.61,0.64-0.92
							c0.72-1.08,1.47-2.13,2.2-3.16c4.39-6.17,8.56-11.35,12.16-15.52c0.51-0.59,1.01-1.16,1.49-1.71
							c0.59-0.68,1.16-1.32,1.71-1.93c0.57-0.61,1.1-1.19,1.6-1.73c4.06-4.35,6.63-6.63,6.63-6.63s11.66,1.45,25.21,1.54
							c16.6,0.09,36.08-1.82,40.58-10.87c0,0-0.33-5.88-5.18-6.76c-9.97-1.8-27.54,4.55-61.13-0.33
							c-39.11-5.69-59.66-19.26-59.66-19.26l22.35-15.39c0,0,23.85,10.08,84.23,2.22c60.41-7.84,89.26-41.43,89.26-41.43l-7.4-9.05
							c-13.02,13.64-34.5,24-45.89,28.44c-11.4,4.44-60.6,10.5-89.17,8.21c-39.66-4.39-41.39-9.4-65.96-16.67
							c-24.57-7.25-41.15-3.54-41.9,2.24c-0.72,5.77,22.66,13.61,22.66,13.61l-10.21,7.84c0,0-33.46-12.32-52.15-27.73
							c-8.04-6.61-13.35-13.79-12.1-20.82c4.13-23.39,50.92-26.06,97.1-26.06c32.17,0,47.8-21.96,55.44-41.68
							c3.34-8.61,5.14-16.8,6.15-22.55c3.25-18.95,32.85-22.81,38.18,0.59c5.34,23.39,12.14,48.24,46.18,70.44
							c34.06,22.22,78.17,13.92,78.17,13.92c94.15-8.28,87.48-103.62,87.48-103.62l103.49,24.42
							C782.45,232.54,796.53,292.79,759.35,350.67z"/>
					</g>
					<g>
						<path class="st1" d="M591.49,311.74c-15.11,81.73-88.97,100.22-88.97,100.22s-0.33-5.88-5.18-6.76
							c-9.97-1.8-27.54,4.55-61.13-0.33c-39.11-5.69-59.66-19.26-59.66-19.26l22.35-15.39c0,0,23.85,10.08,84.23,2.22
							c60.41-7.84,89.26-41.43,89.26-41.43l-7.4-9.05c-13.02,13.64-34.5,24-45.89,28.44c-11.4,4.44-60.6,10.5-89.17,8.21
							c-39.66-4.39-41.39-9.4-65.96-16.67c-24.57-7.25-41.15-3.54-41.9,2.24c-0.72,5.77,22.66,13.61,22.66,13.61l-10.21,7.84
							c0,0-33.46-12.32-52.15-27.73c-0.97-6.98-0.77-16.91,5.8-24.53c11.33-13.09,45.76-12.21,82.39-15.77
							c35.37-3.4,56.23-22.77,52.26-48.26c3.34-8.61,5.14-16.8,6.15-22.55c3.25-18.95,32.85-22.81,38.18,0.59
							c5.34,23.39,12.14,48.24,46.18,70.44C547.37,320.04,591.49,311.74,591.49,311.74z"/>
					</g>
					<g>
						<polygon class="st2" points="384.64,365.45 269.51,429.18 259.52,415.41 367.89,359.35 						"/>
					</g>
					<g>
						<path class="st3" d="M776.22,199.25c0,0-110.12-41.3-177.18-43.98c-67.06-2.66-160.03,9.05-160.03,9.05
							c-3.01-2.02-6.32-3.86-9.84-5.49c-0.42-0.2-0.83-0.4-1.25-0.57c-0.09-0.04-0.18-0.09-0.26-0.11c-0.53-0.26-1.05-0.48-1.6-0.72
							c-0.72-0.31-1.47-0.61-2.22-0.9c-0.68-0.29-1.36-0.55-2.06-0.81c-0.81-0.31-1.65-0.61-2.48-0.9c-0.86-0.31-1.73-0.61-2.63-0.9
							c-2.88-0.97-5.82-1.84-8.76-2.61c-0.9-0.24-1.78-0.46-2.63-0.68c-0.46-0.11-0.9-0.22-1.34-0.33c-0.9-0.22-1.8-0.44-2.7-0.64
							c-0.29-0.09-0.57-0.15-0.86-0.2c-1.05-0.24-2.09-0.46-3.1-0.68c-0.61-0.13-1.23-0.24-1.82-0.37c-1.1-0.22-2.2-0.42-3.27-0.64
							c-2.13-0.4-4.24-0.75-6.24-1.05c-0.07-0.02-0.11-0.02-0.18-0.02c-1.47-0.22-2.9-0.44-4.28-0.64c-1.36-0.2-2.7-0.37-3.95-0.53
							c-0.44-0.04-0.86-0.11-1.27-0.15c-1.38-0.15-2.66-0.31-3.84-0.42c-0.37-0.04-0.72-0.09-1.05-0.11
							c-0.64-0.07-1.23-0.13-1.8-0.18c-0.29-0.02-0.57-0.04-0.81-0.07c-0.51-0.07-0.99-0.09-1.43-0.13
							c-0.66-0.04-1.23-0.09-1.73-0.13c-0.33-0.02-0.64-0.04-0.9-0.07c-0.15,0-0.31-0.02-0.44-0.02c-0.26-0.02-0.48-0.04-0.66-0.04
							c-0.24-0.02-0.37-0.02-0.37-0.02S409.5,61.09,495.55,31.82c86.07-29.29,160.56-4,160.56-4l-25.27,13.81l-34.01,18.6
							C751.8,71.34,776.22,199.25,776.22,199.25z"/>
					</g>
					<g>
						<path class="st3" d="M657.23,419.2c0.2-0.04,0.4-0.09,0.59-0.13c1.25-0.29,2.5-0.59,3.75-0.9c1.43-0.35,2.85-0.72,4.28-1.1
							c3.18-0.86,6.43-1.82,9.71-2.85c1.32-0.44,2.66-0.88,4-1.36c1.54-0.53,3.05-1.08,4.59-1.65c1.34-0.51,2.66-1.03,3.97-1.56
							c1.41-0.57,2.81-1.16,4.24-1.8c0.75-0.31,1.49-0.64,2.24-0.99c1.12-0.5,2.26-1.05,3.4-1.6c0.64-0.29,1.25-0.59,1.87-0.92
							c2.61-1.3,5.25-2.7,7.86-4.19c0.59-0.35,1.19-0.7,1.8-1.05c0.75-0.44,1.52-0.9,2.28-1.38c0.59-0.37,1.21-0.75,1.82-1.14
							c0.24-0.15,0.51-0.31,0.77-0.48c0.64-0.42,1.3-0.86,1.95-1.3c1.52-0.99,3.01-2.04,4.5-3.12c2.24-1.62,4.48-3.34,6.68-5.14
							c0.72-0.59,1.47-1.21,2.2-1.82C712.54,398.74,688.76,411.54,657.23,419.2z M619.57,425.55c1.6-0.22,3.29-0.44,5.03-0.68
							C622.97,425.02,621.28,425.26,619.57,425.55z"/>
						<path class="st3" d="M759.35,350.67c-0.9,1.41-1.8,2.77-2.72,4.11c-0.02,0.02-0.02,0.04-0.04,0.07
							c-1.45,2.11-2.92,4.17-4.44,6.15c-0.44,0.57-0.88,1.14-1.32,1.69c-0.72,0.94-1.45,1.87-2.2,2.77
							c-0.22,0.29-0.44,0.57-0.68,0.83c-0.86,1.05-1.73,2.06-2.63,3.07c-0.42,0.48-0.83,0.97-1.25,1.43
							c-0.83,0.92-1.67,1.84-2.5,2.72c-0.72,0.77-1.45,1.52-2.17,2.24c-2,2.04-4.04,4-6.1,5.84c-1.19,1.08-2.37,2.11-3.56,3.12
							c-17.19,14.03-40.97,26.83-72.5,34.5c-0.11,0.02-0.22,0.04-0.31,0.07c-11.53,2.63-22.29,4.19-31.55,5.49
							c-0.11,0.02-0.22,0.02-0.33,0.04c-0.15,0.02-0.29,0.02-0.44,0.07c-1.62,0.15-3.32,0.4-5.03,0.68
							c-0.75,0.09-1.49,0.2-2.26,0.33c-0.94,0.13-1.84,0.26-2.74,0.42c-2.68,0.4-5.14,0.79-7.36,1.23
							c-0.53,0.11-1.03,0.22-1.54,0.33c-1.62,0.35-3.1,0.72-4.39,1.14c-0.31,0.09-0.57,0.18-0.86,0.29
							c-0.26,0.09-0.53,0.18-0.79,0.29c-0.02,0-0.02,0-0.04,0.02c-0.02,0-0.02,0-0.04,0.02c-15.41,3.78-32.89,9.33-51.01,15.85
							c-47.96,17.19-100.72,41.06-134.05,56.78c13.06-39.35,35.51-66.66,47.45-79.42c16.6,0.09,36.08-1.82,40.58-10.87
							c0,0,73.87-18.49,88.97-100.22c94.15-8.28,87.48-103.62,87.48-103.62l103.49,24.42C782.45,232.54,796.53,292.79,759.35,350.67
							z"/>
					</g>
					<g>
						<path class="st4" d="M461.94,422.82c-11.95,12.76-34.39,40.07-47.45,79.42c-18.27,8.61-30.7,14.8-33.27,16.1l-0.22,0.11
							l-0.29,0.13c0.46-1.91,0.97-3.78,1.49-5.64c0.26-0.92,0.53-1.84,0.79-2.77c0.55-1.82,1.1-3.62,1.69-5.4
							c2.11-6.43,4.48-12.54,7.03-18.31c0.61-1.43,1.25-2.83,1.91-4.22c0.72-1.54,1.45-3.07,2.2-4.57
							c4.19-8.41,8.65-15.96,13.02-22.62c0.51-0.75,0.99-1.45,1.45-2.15c0.22-0.31,0.42-0.61,0.64-0.92
							c0.72-1.08,1.47-2.13,2.2-3.16c4.39-6.17,8.56-11.35,12.16-15.52c0.51-0.59,1.01-1.16,1.49-1.71
							c0.59-0.68,1.16-1.32,1.71-1.93c0.57-0.61,1.1-1.19,1.6-1.73c4.06-4.35,6.63-6.63,6.63-6.63S448.39,422.73,461.94,422.82z"/>
					</g>
					<g>
						<path class="st5" d="M656.11,27.82l-25.27,13.81c-141.89-20.86-216.75,77.84-235.39,106.76c-1.1-0.22-2.2-0.42-3.27-0.64
							c-2.13-0.4-4.24-0.75-6.24-1.05c-0.07-0.02-0.11-0.02-0.18-0.02c-1.47-0.22-2.9-0.44-4.28-0.64c-1.36-0.2-2.7-0.37-3.95-0.53
							c-0.44-0.04-0.86-0.11-1.27-0.15c-1.38-0.15-2.66-0.31-3.84-0.42c-0.37-0.04-0.72-0.09-1.05-0.11
							c-0.64-0.07-1.23-0.13-1.8-0.18c-0.29-0.02-0.57-0.04-0.81-0.07c-0.51-0.07-0.99-0.09-1.43-0.13
							c-0.66-0.04-1.23-0.09-1.73-0.13c-0.33-0.02-0.64-0.04-0.9-0.07c-0.15,0-0.31-0.02-0.44-0.02c-0.26-0.02-0.48-0.04-0.66-0.04
							c-0.24-0.02-0.37-0.02-0.37-0.02S409.5,61.09,495.55,31.82C581.63,2.53,656.11,27.82,656.11,27.82z"/>
					</g>
				</g>
				<g>
					<g>
						<path class="st6" d="M310.6,268.96c-2.44-2.13-5.03-4.17-7.22-6.54c-15.83-16.47-23.63-40.53-20.53-63.17
							C282.45,225.07,292.36,250.63,310.6,268.96z"/>
					</g>
				</g>
				<g>
					<polygon class="st6" points="326.13,268.96 345.45,209.02 318.38,259.41 304.83,239.87 333.9,181.7 368.11,181.7 					"/>
				</g>
				<g>
					<polygon class="st6" points="388.75,183.48 349.23,266.75 343.01,266.75 382.1,183.48 					"/>
				</g>
				<g>
					<path class="st6" d="M414.73,174.15c-1.54,5.12-15.94-0.94-78.26-1.78c-33.2-0.44-60.08,6.89-60.08,6.89l-6.3-11.77
						c0,0,41.39-5.99,86.47-4.9C401.64,163.72,416.29,169.06,414.73,174.15z"/>
				</g>
				<g>
					<path class="st7" d="M370.55,297.6c-36.63,3.56-71.06,2.68-82.39,15.77c-6.57,7.62-6.76,17.54-5.8,24.53
						c-8.04-6.61-13.35-13.79-12.1-20.82c4.13-23.39,50.92-26.06,97.1-26.06c32.17,0,47.8-21.96,55.44-41.68
						C426.78,274.83,405.92,294.19,370.55,297.6z"/>
				</g>
				<g>
					<polygon class="st6" points="471.46,176.72 471.46,183.48 467.8,183.48 467.8,190.82 456.71,185.04 431.17,185.04 
						431.17,174.26 					"/>
				</g>
				<g>
					<path class="st6" d="M612.46,175.38v2.42c-15.41-0.42-35.13-0.77-58.06-0.75c-26.88,0.02-49.51,0.55-66.4,1.1
						c16.89-4.48,39.52-8.72,66.4-8.87C577.32,169.14,597.04,172,612.46,175.38z"/>
				</g>
				<g>
					<polygon class="st6" points="524.87,287.17 554.47,205.18 516.57,280.08 502.07,256.1 539.07,182.54 577.87,183.48 					"/>
				</g>
				<g>
					<polygon class="st6" points="605.98,185.92 550.23,285.7 591.18,183.48 					"/>
				</g>
			</g>
			<path class="st8" d="M418.48,293.23c0,0,18.76-20.43,29.87-20.43c11.1,0,13.88,30.09,0,30.09s0-23.76-4.44-24.42
				S418.48,293.23,418.48,293.23z"/>
		</g>
		<path class="st3" d="M599.63,429.56c4.11-1.58,10.19-2.61,17.68-3.69C611.8,426.78,605.89,428.03,599.63,429.56z"/>
		<path class="st3" d="M625.37,424.76c9.27-1.3,20.03-2.85,31.55-5.49C647.15,421.64,636.65,423.5,625.37,424.76z"/>
		<path class="st3" d="M756.59,354.84c-5.97,9.64-14.8,20.07-26.85,29.86C739.28,376.65,748.37,366.83,756.59,354.84z"/>
		<path class="st0" d="M699.42,405.31c0,0,37.16-23.32,35.02-75.3c0,0,18.69,35.77,15.9,50.26S699.42,405.31,699.42,405.31z"/>
	</g>
</g>
</svg>
