<?xml version="1.0" encoding="utf-8"?>
<!-- Generator: Adobe Illustrator 25.0.1, SVG Export Plug-In . SVG Version: 6.00 Build 0)  -->
<svg version="1.1" id="Layer_1" xmlns="http://www.w3.org/2000/svg" xmlns:xlink="http://www.w3.org/1999/xlink" x="0px" y="0px"
	 viewBox="250 0 380 875" xml:space="preserve">
<style type="text/css">
	.st0{fill:#FFFFFF;}
</style>
<g>
	<g>
		<g>
			<path d="M311.8,512.69v103.78c0,51.74,39.99,94.11,90.76,98.03v17.91c0,4.53,3.66,8.14,8.14,8.14h9.36v11.55h-9.36
				c-4.48,0-8.14,3.66-8.14,8.14v0.71c0,4.48,3.66,8.04,8.14,8.04h9.36v8.34h-9.36c-4.48,0-8.14,3.66-8.14,8.14v0.66
				c0,4.53,3.66,8.09,8.14,8.09h9.36v80.07h40.9v-80.07h9.36c4.48,0,8.14-3.56,8.14-8.09v-0.66c0-4.48-3.66-8.14-8.14-8.14h-9.36
				v-8.34h9.36c4.48,0,8.14-3.56,8.14-8.04v-0.71c0-4.48-3.66-8.14-8.14-8.14h-9.36v-11.55h9.36c4.48,0,8.14-3.61,8.14-8.14V714.5
				c50.77-3.92,90.76-46.29,90.76-98.03V512.69H311.8z M496.06,601.77l-117.62,73.71l59.32-59.32H372.6L437.76,551h70.66
				l-71.32,50.77H496.06z"/>
			<path d="M591.91,465.54h-61.14v-56.73h-47.15v56.73h-93.05v-56.73h-47.15v56.73h-61.14c-12.49,0-22.61,10.12-22.61,22.61v1.94
				c0,12.48,10.12,22.6,22.61,22.6h309.63c12.48,0,22.61-10.12,22.61-22.6v-1.94C614.52,475.66,604.4,465.54,591.91,465.54z"/>
			<path d="M569.23,257.84v103.83H311.8V257.84c0-51.77,40-94.12,90.77-98.06v-17.88c0-4.47,3.65-8.12,8.12-8.12h9.35v-11.59h-9.35
				c-4.47,0-8.12-3.65-8.12-8.12v-0.65c0-4.53,3.65-8.12,8.12-8.12h9.35v-8.35h-9.35c-4.47,0-8.12-3.59-8.12-8.06v-0.71
				c0-4.47,3.65-8.12,8.12-8.12h9.35V0h40.94v80.06h9.35c4.47,0,8.12,3.65,8.12,8.12v0.71c0,4.47-3.65,8.06-8.12,8.06h-9.35v8.35
				h9.35c4.47,0,8.12,3.59,8.12,8.12v0.65c0,4.47-3.65,8.12-8.12,8.12h-9.35v11.59h9.35c4.47,0,8.12,3.65,8.12,8.12v17.88
				C529.22,163.72,569.23,206.07,569.23,257.84z"/>
			<path d="M591.91,361.67H282.29c-12.48,0-22.61,10.12-22.61,22.61v1.93c0,12.49,10.12,22.61,22.61,22.61h309.63
				c12.48,0,22.61-10.12,22.61-22.61v-1.93C614.52,371.79,604.4,361.67,591.91,361.67z"/>
		</g>
	</g>
	<g>
		<path class="st0" d="M367.95,361.67v-90.46c0-4.01-3.25-7.26-7.26-7.26h-0.75c-4.01,0-7.26,3.25-7.26,7.26v90.46"/>
		<path class="st0" d="M408.05,361.67V235.4c0-4.01-3.25-7.26-7.26-7.26h-0.75c-4.01,0-7.26,3.25-7.26,7.26v126.27"/>
		<path class="st0" d="M528.34,361.67v-90.46c0-4.01-3.25-7.26-7.26-7.26h-0.75c-4.01,0-7.26,3.25-7.26,7.26v90.46"/>
		<path class="st0" d="M488.24,361.67V235.4c0-4.01-3.25-7.26-7.26-7.26h-0.75c-4.01,0-7.26,3.25-7.26,7.26v126.27"/>
		<path class="st0" d="M448.14,361.67V199.59c0-4.01-3.25-7.26-7.26-7.26h-0.75c-4.01,0-7.26,3.25-7.26,7.26v162.08"/>
	</g>
</g>
</svg>
